HIERARCHY
ROOT Hips
{
	OFFSET 0.000000 0.000000 0.000000
	CHANNELS 6 Xposition Yposition Zposition Zrotation Yrotation Xrotation 
	JOINT LHipJoint
	{
		OFFSET 0.000000 0.000000 0.000000
		CHANNELS 3 Zrotation Yrotation Xrotation
		JOINT LeftUpLeg
		{
			OFFSET 1.363060 -1.794630 0.839290
			CHANNELS 3 Zrotation Yrotation Xrotation
			JOINT LeftLeg
			{
				OFFSET 2.448110 -6.726130 0.000000
				CHANNELS 3 Zrotation Yrotation Xrotation
				JOINT LeftFoot
				{
					OFFSET 2.562200 -7.039590 0.000000
					CHANNELS 3 Zrotation Yrotation Xrotation
					JOINT LeftToeBase
					{
						OFFSET 0.157640 -0.433110 2.322550
						CHANNELS 3 Zrotation Yrotation Xrotation
						End Site
						{
							OFFSET 0.000000 0.000000 0.000000
						}
					}
				}
			}
		}
	}
	JOINT RHipJoint
	{
		OFFSET 0.000000 0.000000 0.000000
		CHANNELS 3 Zrotation Yrotation Xrotation
		JOINT RightUpLeg
		{
			OFFSET -1.305520 -1.794630 0.839290
			CHANNELS 3 Zrotation Yrotation Xrotation
			JOINT RightLeg
			{
				OFFSET -2.542530 -6.985550 0.000000
				CHANNELS 3 Zrotation Yrotation Xrotation
				JOINT RightFoot
				{
					OFFSET -2.568260 -7.056230 0.000000
					CHANNELS 3 Zrotation Yrotation Xrotation
					JOINT RightToeBase
					{
						OFFSET -0.164730 -0.452590 2.363150
						CHANNELS 3 Zrotation Yrotation Xrotation
						End Site
						{
							OFFSET 0.000000 0.000000 0.000000
						}
					}
				}
			}
		}
	}
}
MOTION
Frames: 17
Frame Time: 0.008333
22.441855 16.260911 4.669070 14.478386 -83.825622 -9.032503 -10.513155 5.096864 0.941381 -2.577570 7.900738 18.470896 -1.197119 0.631748 9.517023 0.760633 5.530918 1.301962 0.862100 0.000000 -74.867300 9.185925 0.045446 1.383873 10.357414 -10.405124 -45.341271 2.167436 -2.088169 29.537681 -1.514694 -6.409990 -2.128576 -1.313900 -0.000000 -35.224100
22.264170 16.269822 4.635735 13.197338 -83.788592 -7.916635 -10.531185 5.218008 1.018923 -2.092400 7.671318 18.681757 -1.083728 0.772393 10.078335 0.739769 5.427561 3.138151 1.011101 -0.000000 -77.511101 9.207492 0.004727 1.283426 10.493013 -10.559089 -45.209358 2.091682 -2.221446 31.014956 -1.515840 -6.357555 -2.580659 -1.218800 -0.000000 -34.068600
22.084334 16.281334 4.601211 11.609196 -83.764204 -6.487891 -10.557947 5.344641 1.098779 -1.560258 7.431441 18.799802 -0.962405 0.918943 10.747408 0.727864 5.278919 5.056856 1.138200 0.000000 -80.034300 9.226665 -0.038261 1.196412 10.653883 -10.633685 -44.947373 2.031138 -2.324124 32.322182 -1.513403 -6.267523 -3.171386 -1.103300 0.000000 -32.602300
21.902581 16.295436 4.565227 9.843531 -83.740508 -4.868414 -10.594354 5.474816 1.183448 -0.999940 7.179170 18.808531 -0.832674 1.068476 11.541642 0.729022 5.099301 7.053836 1.240000 0.000000 -82.294100 9.241892 -0.084576 1.124485 10.833000 -10.637273 -44.565164 1.984635 -2.397647 33.452998 -1.510381 -6.155845 -3.875715 -0.974600 -0.000000 -30.866000
21.719365 16.311943 4.527711 7.981052 -83.708549 -3.142005 -10.642789 5.606088 1.271888 -0.414823 6.928841 18.690771 -0.694207 1.218775 12.485702 0.745354 4.884116 9.131772 1.310400 0.000000 -84.170200 9.251480 -0.134324 1.065732 11.028809 -10.584790 -44.072087 1.950538 -2.444531 34.413768 -1.510138 -6.040562 -4.670750 -0.838500 0.000000 -28.849200
21.535386 16.330733 4.488624 6.129140 -83.659863 -1.414900 -10.704090 5.733906 1.363292 0.185214 6.690892 18.434096 -0.547074 1.365901 13.596970 0.779797 4.639646 11.284214 1.345800 -0.000000 -85.530600 9.254233 -0.188191 1.018920 11.235868 -10.491892 -43.482218 1.926790 -2.467987 35.211585 -1.516384 -5.942492 -5.527088 -0.700600 0.000000 -26.596200
21.351299 16.351577 4.448011 4.378145 -83.588713 0.219722 -10.777714 5.852051 1.455791 0.788985 6.475686 18.030743 -0.392303 1.505189 14.887131 0.835080 4.378786 13.494032 1.346000 0.000000 -86.244300 9.250060 -0.246458 0.982123 11.448059 -10.374824 -42.810776 1.910987 -2.471755 35.856235 -1.532360 -5.881652 -6.412669 -0.565399 0.000000 -24.196000
21.167980 16.374248 4.406050 2.792561 -83.493642 1.697079 -10.861939 5.954236 1.547036 1.385412 6.291760 17.478679 -0.232477 1.631694 16.359980 0.913006 4.122053 15.729065 1.315700 0.000000 -86.194000 9.239852 -0.308949 0.952672 11.661033 -10.249049 -42.073478 1.901079 -2.459694 36.360168 -1.560190 -5.872622 -7.300450 -0.435300 0.000000 -21.736800
20.986499 16.398460 4.363028 1.397480 -83.378236 2.989312 -10.954624 6.034642 1.633534 1.965093 6.148460 16.779857 -0.071918 1.741343 18.015403 1.013647 3.897669 17.937731 1.267001 0.000000 -85.271400 9.225148 -0.374794 0.927498 11.872120 -10.127012 -41.284436 1.894833 -2.435343 36.736648 -1.600500 -5.924446 -8.161923 -0.311600 -0.000001 -19.361301
20.807425 16.423923 4.319211 0.210793 -83.247087 4.075879 -11.052486 6.088390 1.711513 2.515627 6.050977 15.942235 0.083607 1.831591 19.844853 1.134775 3.744055 20.051786 1.221200 -0.000000 -83.407701 9.207996 -0.442637 0.903108 12.077315 -10.021650 -40.457553 1.890741 -2.402152 37.001980 -1.652109 -6.035673 -8.979314 -0.193800 0.000000 -17.177100
20.631792 16.450253 4.274906 -0.747869 -83.105840 4.935071 -11.150888 6.112125 1.776890 3.019795 5.999861 14.983604 0.228172 1.902152 21.825802 1.272349 3.716048 21.993322 1.212800 0.000000 -80.662700 9.191091 -0.511270 0.875530 12.270486 -9.947514 -39.605480 1.887836 -2.363772 37.175260 -1.711548 -6.193475 -9.738345 -0.081400 0.000001 -15.318300
20.460190 16.477248 4.230895 -1.644197 -82.968800 5.730721 -11.254307 6.108876 1.824184 3.502801 6.018369 13.894731 0.355403 1.957563 23.966051 1.417993 3.819548 23.665375 1.255600 -0.000000 -76.895700 9.170868 -0.578679 0.842541 12.471725 -9.896584 -38.728331 1.886918 -2.318808 37.261046 -1.777788 -6.391575 -10.448866 0.028300 0.000000 -13.676600
20.293177 16.504487 4.187180 -2.392207 -82.835601 6.371262 -11.354324 6.076893 1.850185 3.930914 6.089152 12.714735 0.463269 2.001990 26.210918 1.567200 4.134572 25.003692 1.400400 -0.000000 -72.517500 9.151454 -0.644586 0.799999 12.663816 -9.889730 -37.837072 1.888154 -2.271912 37.281409 -1.843981 -6.598654 -11.104032 0.135500 0.000000 -12.395400
20.131058 16.531715 4.144204 -3.073976 -82.712732 6.937755 -11.451780 6.020484 1.852116 4.311902 6.215421 11.453280 0.551067 2.042625 28.538551 1.713586 4.678318 25.943055 1.663200 0.000000 -67.713799 9.130980 -0.708574 0.746237 12.854995 -9.925401 -36.930863 1.893063 -2.222974 37.243496 -1.906721 -6.795390 -11.716237 0.241400 -0.000000 -11.398100
19.973917 16.558753 4.102189 -3.721911 -82.602319 7.459682 -11.545626 5.943080 1.829272 4.642267 6.387216 10.129898 0.621121 2.085906 30.911686 1.853752 5.466848 26.450716 2.052799 0.000000 -62.836300 9.108704 -0.770663 0.679839 13.046467 -10.004704 -36.007960 1.903090 -2.172422 37.152144 -1.962389 -6.961749 -12.294709 0.346400 -0.000000 -10.632300
19.821569 16.585398 4.061161 -4.346677 -82.503643 7.948053 -11.634733 5.848383 1.782618 4.919306 6.593541 8.761302 0.676979 2.136944 33.297479 1.985235 6.489308 26.505664 2.555100 -0.000001 -58.125100 9.084398 -0.831467 0.600662 13.237250 -10.127825 -35.067083 1.919398 -2.120746 37.011742 -2.008124 -7.081201 -12.847719 0.450200 -0.000001 -10.042000
19.673656 16.611559 4.021116 -4.958044 -82.415423 8.410192 -11.718366 5.739542 1.714488 5.140418 6.820848 7.362890 0.722650 2.199073 35.663962 2.107015 7.714783 26.103305 3.136800 0.000001 -53.753000 9.057816 -0.891444 0.509634 13.425629 -10.291035 -34.104932 1.942583 -2.067914 36.821934 -2.042552 -7.145211 -13.380348 0.551700 -0.000001 -9.570400
